<?xml version="1.0" encoding="UTF-8"?><svg id="Ebene_2" xmlns="http://www.w3.org/2000/svg" viewBox="0 0 576 600.33"><defs><style>.cls-1{fill:#4c5156;}</style></defs><g id="Ebene_2-2"><path class="cls-1" d="M404.67,4s-17,2-18,2-26.67-1-26.67-1l-23.67-5h-28.33l-22.67,6-25,14-73.67,82-47,45.67-40.33,33.33-60.67,53.33-17,27-14.67,37.33v6.67L0,344.33l4,40.33-2,9.33,5.33,17,2.33,18,9.33,17.33,9.67,25.67,22.33,30.33,35.67,28,35.33,22.67,21,9.67,37.67,33.33,15.33,4.33,12-11.33,48.33,7.33,9-1.33,5.33,2.67,38.67-7,40-18.67,38.67-29,29.33-16,3.33,3,34.67-22.67,13-8.67,9.67-20.67,3.67-14.67-8-27.33,2-40.67,6-7.67v-18l13-51.33,10.33-24.67,26.33-32,3.33,2,5-10,27.67-31.67,8.67-21v-14.67l-5-24.33-9.67-35.67-11-23-9.33-10.33-10.67-12.67-28.33-30.33-36.67-24.67-36-15.33-24.67-6Z"/></g></svg>