<?xml version="1.0" encoding="UTF-8"?><svg id="Ebene_2" xmlns="http://www.w3.org/2000/svg" viewBox="0 0 437.74 1404.75"><defs><style>.cls-1{fill:#4c5156;}</style></defs><g id="Ebene_11"><g><path class="cls-1" d="M163.93,1404.75s.31-.19,.31-.21,.16-.63,.16-.63c0,0-.2-.49-.2-.49s-.45-.13-.45-.13l-.42,.25-.13,.38-.04,.19,.19,.34,.29,.27,.29,.04Z"/><path class="cls-1" d="M173.95,1401s.67-.2,.67-.2c0,0,.29-.85,.3-.86s.73-.76,.73-.76c0,0,.05-.27,.05-.28v-1.89l.21-.31-.04-.59-.1-.49-.16-1.31s-.29-1.15-.31-1.23-.15-2.1-.15-2.1c0,0,.22-1.11,.22-1.13s-.15-1.2-.15-1.2l.36-1.16-.26-.91,.23-1.03s-.52-1.43-.52-1.44-.37-1-.37-1l-.13-1.05,.1-1.17,.33-1.15s-.11-1.26-.14-1.42-.01-1.82-.01-1.82l-.3-1.2v-1.29l-.56-1.1,.5-.97s-.28-2.31-.28-2.35-.39-1.6-.39-1.6l-.72-1.67-.33-.94v-1.46l-.53-.69,.29-1.07,.76-1.12-.06-1.36-.36-.53,.03-.5-.67-.24-1.94,1.04-1.74,2.5-.56,1.93-.28,1.64-.86,1.81-.5,.62-.75,1.56-1.89,2.06-1.38,1.6-1.01,1.38-.94,2.58-.82,1.79v1.69l-.47,1.51s-.11,1.82-.08,1.86,.67,1.6,.67,1.64,.26,1.15,.26,1.15l.28,.26-.15,.42,.17,.43,.46,.65,1.26,.75,2.08,2.88,.65,1.24,.89,.43,.9,.22,1.43,1.21,.58,.74,1.18,1.22,1.21,1.07,1.33,1.38,1.31,1.12,.45,.21Z"/><path class="cls-1" d="M130.68,1345.8c-.02-.12-1.33-3.48-1.33-3.48l.58-2,2.44-2.96,1.67-3,1.92-2.81,1.4-.37,.46-.92,4.67-.71,3.21-2.35s.6-1.9,.54-1.98-3.12-3.19-3.12-3.19l-3.08-1.31-6.19-1.94-2.54-.17-4.52,1.98-1.33,.29,.25,1.12-.25,2.33-1.5,2.81,.48,.75,.92-.65,.15-.62,.58,.25-.12,1.06,.23,.81,1.33,.6-.42,.23,.25,.62v.54l.37,.46-.46,.17-.48-.04-1.85,2.19-.85,.06,.81,.96-.42,1.29-.83,.23-.52-.54-.83,.15s-.42,.29-.48,.29-1.31-.98-1.31-.98l-.96,.02-.15,1.4-.6,1.12-.58-.75-.52-.54-.88,.6-.1,.71s-1.1-.29-1.19-.35-.75-.6-.75-.6l-.56-.83v-.77l.15-.73,2.27-1.04,1.52,.58,2.29-.58,1.1-1.17,.38-.9-.79-1.08-1.56,.06-1.69-.08-.29-.79-1.77-.19-1.1-.25-.21-.62-.77,.29-1.56,1.15-.92,.38-1.27-.85-.4-1.35-.94-.25-.46,.73v1.52l-.54,.67-.62,.15s.04,1.08,.1,1.06,1,.83,1,.83l.73,.17-.38,.67-.81,.4-2.08-.08-1.79-.65-2.02-.35-1.04-.96v-1.52l1.4-1.77,2.02-1.46,1.29-.67,.38-1.1,.85-.25,.88,.08,.52,.75,1.17,.67,1.08,.25,.96,.46,.62,.85,1-.23,.9-.46,.77-.46,1.38,.02,1.17,.6,1.06-1.15,.67-.81,.15-.48-.17-.69-.5-.5,.06-.5-.29-.25-.96,.46h-2.08l-.77-.29-.29,.33-1.06-.21-.15-.5s-.12-.29-.19-.29-.67,.19-.67,.19l.4,.38-.79-.02-2.88-1.35,.06-.65h-.92l-3.88-1.44-1.35-.21-3.52-2.69-.6-.48-2-.25-.81,.71-.17,.56-.4-.17v-.31s-1.83,.98-1.96,1-1.35,.52-1.35,.52c0,0-1.44,.75-1.6,.75s-1.21,.35-1.21,.35c0,0-2.35-.15-2.42-.17s-1.02-.42-1.02-.42l-2.42-.42-1.35-.23-1.48-.27s-.9,.19-.96,.19-1.25-.83-1.25-.83v-1.42l-1.06-.4-.15-2.04-.21-1.5,.62-2.71,.6-1.12,.75-1.33,.67-.56,.58-1.1-.33-.67-1.83,1.15-1.6,2.06-3.54,3.98,.33,1.9,1.4,4.6s-.12,2.23-.06,2.25,.5,1.85,.5,1.85l.88,2.6,.06,1.1s2.96,2.83,3.02,2.83,3.15,1.27,3.15,1.27l1.65,1.98,6.17,4.12,1.54,1.44,5.1,.23,5.21,1.25,4.79,2.42,1.12,1.06,1.65,.75,.19,1.08,.96,.67-.25,1.15,2.46,3.54,1.77,1.9,7.4,3.87,4.02,.29,3.08-2.6,1.88-2.88,.5-3.48-.33-1.08Z"/><polygon class="cls-1" points="121.64 1333.42 121.4 1333.12 121.06 1333.2 120.93 1333.45 121.13 1333.63 121.5 1333.56 121.64 1333.42"/><path class="cls-1" d="M106.15,1330.64s-1.1-.15-1.1-.15l-.22-.91,.13-1.46,.89,.22,.34,.6-.04,1.69Z"/><path class="cls-1" d="M118.53,1328.49s-.06,.43-.06,.43c0,0-.34,.02-.35,0s-.14-.26-.13-.27,0-.15,0-.15l-.34-.2s-.15-.15-.13-.19,.31-.14,.31-.14h.44l.26,.06,.09,.16-.09,.2-.1,.04,.1,.06Z"/><polygon class="cls-1" points="120.38 1325.32 120.49 1326.11 119.42 1326.7 119.04 1325.2 119.04 1323.67 118.97 1323.1 120.28 1321.97 120.86 1323.16 121.05 1324.51 120.64 1325.12 120.38 1325.32"/><path class="cls-1" d="M120.29,1320.38l-.39,.6,.29,.22s.11-.35,.12-.36-.02-.45-.02-.45Z"/><path class="cls-1" d="M119.72,1319.9s-.39-.41-.39-.41v.17l.26,.33,.13-.09Z"/><path class="cls-1" d="M117.38,1319.08l.28,.28,.06,.32s-.36,.31-.37,.31-.31,.11-.31,.1-.23-.47-.23-.47v-.39l.58-.15Z"/><path class="cls-1" d="M118.37,1317.04s-.3,.37-.3,.39,.2,.09,.2,.09l.21-.28-.12-.19Z"/><polygon class="cls-1" points="117.74 1310.38 117.6 1310.9 117.27 1311 116.99 1310.84 116.84 1310.45 117.07 1310.28 117.52 1310.38 117.74 1310.38"/><path class="cls-1" d="M128.94,1310l-1.61,.17-.47,.4,.04,.5s.57-.41,.62-.43,.67-.11,.67-.11l.53-.26,.22-.28Z"/><path class="cls-1" d="M131.75,1311.5s-1.32-.1-1.32,0,.36,.56,.36,.56l.4-.21,.56-.35Z"/><path class="cls-1" d="M141.14,1311.45s-.96-.25-.96-.25l-.33,.15s-.15,.47-.11,.47,.43,.26,.6,.22,.71-.12,.71-.12l.1-.48Z"/><path class="cls-1" d="M146.86,1311.51c-.06,0-1.29,.12-1.29,.24s-.15,.37,0,.41,.58,.32,.58,.32l.5-.18,.21-.67v-.12Z"/><path class="cls-1" d="M148.62,1310.92s-.81,.24-.81,.24c0,0-.18-.38-.14-.4s.47-.39,.47-.39l.31,.32,.17,.24Z"/><path class="cls-1" d="M158.64,1318.93c.01-.08-.56-1.29-.56-1.29l-.85-.17s-.42,.36-.42,.4,.11,.65,.11,.65l.35,.56s.54,.35,.6,.35,.57-.26,.57-.26l.19-.24Z"/><path class="cls-1" d="M97.93,1310.83l-.3,.43v.14s.3,.02,.3,.02l.08-.26-.08-.32Z"/><polygon class="cls-1" points="95.4 1301.71 94.77 1302.94 94.93 1303.1 95.91 1301.65 96.46 1300.72 95.77 1299.92 95.09 1300.18 94.91 1300.7 95.32 1301.41 95.4 1301.71"/><polygon class="cls-1" points="212.73 1168.02 213.71 1169.14 212.85 1169.22 212.73 1168.02"/><polygon class="cls-1" points="207.76 1164.59 207.45 1164.49 207.53 1164.76 207.76 1164.59"/><path class="cls-1" d="M207.36,1162.23v.75h.33v-.38l-.24-.28-.09-.09Z"/><path class="cls-1" d="M208.02,1158.34s-.39-.51-.39-.51l-.54-.19-.35,.34-.14,.49s.36,.3,.38,.36,.33,.38,.33,.38l.46-.3,.25-.57Z"/><polygon class="cls-1" points="259.13 1141.62 258.29 1141.62 258 1142.01 257.55 1142.52 257.48 1142.91 257.48 1143.49 257.88 1143.71 258.3 1143.42 258.71 1142.96 259.15 1142.16 259.13 1141.62"/><polygon class="cls-1" points="261.5 1130.44 260.92 1131.17 260.92 1131.74 260.46 1132.5 260.6 1132.94 261.5 1131.58 261.5 1130.44"/><polygon class="cls-1" points="261.19 1123.07 261.75 1124.4 261.25 1124.81 260.67 1123.39 260.58 1123.07 261.19 1123.07"/><polygon class="cls-1" points="238.24 1114.82 237.85 1115.4 236.81 1115.32 235.78 1115.76 235.62 1115.01 236.39 1114.82 237.6 1114.51 238.24 1114.82"/><polygon class="cls-1" points="217.49 1127.03 217.49 1127.4 218.43 1127.55 218.78 1127.74 219.08 1127.15 218.66 1126.53 217.64 1126.01 217.14 1126.26 217.47 1126.87 217.49 1127.03"/><path class="cls-1" d="M196.18,1114.76l-.51,.14s-.06,.39-.05,.45,.01,.38,.02,.43,.36,.24,.36,.24l.58-.24-.12-.51-.14-.32-.15-.19Z"/><path class="cls-1" d="M201.2,1111.58s-.94,.33-.94,.33c0,0-.61-.46-.67-.48s-.89-1.39-.89-1.39l-.98-1.02-1.23-.42-.75-.19-.73-.05-.11-.7,.36-.82,.83-.56,1.53-.44,1.65-.14,1.23-.24,1.61-.69h.72l.26,.24-.22,2.55-.31,1.72-.4,1.06-.97,1.22Z"/><polygon class="cls-1" points="67.17 1176 67.89 1176.89 70 1177.56 70 1176.78 67.17 1176"/><polygon class="cls-1" points="63.61 1177.83 62.67 1178.89 62.22 1180.89 62.92 1181.17 63.61 1179.5 64.5 1178.17 63.61 1177.83"/><path class="cls-1" d="M220.8,1074.76s-.52-.08-.52-.05,.17,.41,.17,.41l.35,.06v-.42Z"/><polygon class="cls-1" points="242.76 1064.88 241.62 1064.95 241.15 1064.44 241.59 1064.3 242.45 1064.63 242.76 1064.88"/><polygon class="cls-1" points="226.6 1057.88 225.9 1056.57 224.69 1056.57 223.9 1056.68 223.85 1057.22 224.15 1057.79 225.06 1058.5 225.89 1058.74 226.6 1057.88"/><polygon class="cls-1" points="213.54 1060.54 213.08 1060.64 213.31 1060.88 213.49 1060.88 213.54 1060.54"/><path class="cls-1" d="M217.56,1053.81l-.14-.53-.25-.14-.25,.25s.11,.31,.15,.31,.22,.11,.22,.11h.26Z"/><path class="cls-1" d="M207.3,1051.19s-1.74-.43-1.74-.43l-.66,.83-.42,.76,.31,.66,1.17,.53,.65,.31,1.25-1.06s.05-1.1,.03-1.14-.59-.47-.59-.47Z"/><path class="cls-1" d="M275.53,1053.34s-.38-.15-.4-.1-.07,.33-.07,.33c0,0,.07,.31,.1,.35s.31,.14,.31,.14l.05-.72Z"/><path class="cls-1" d="M275.3,1037.24s-.9,.62-.9,.62h.59l.31-.62Z"/><path class="cls-1" d="M274.09,1038.16s-1.65,1.05-1.68,1.07,.09,.23,.11,.23,1.57-1.3,1.57-1.3Z"/><path class="cls-1" d="M271.8,1039.6s-.93,.45-.93,.45c0,0-.61-.02-.64,0s-.78,.12-.78,.12l-.89,.09-1.03,.62s-.25,.16-.29,.16-.49-.06-.49-.06l-.9,.2-.09,.31,.87-.09,.75-.14,.54-.1,1.11-.05,.93-.33,1.58-.68,.28-.49Z"/><polygon class="cls-1" points="201.88 1047.34 201.43 1047.47 201.43 1047.7 201.69 1047.78 201.88 1047.34"/><path class="cls-1" d="M212.64,1042l-1.13,.7v.86s.08,.52,.1,.49,.55-1.22,.55-1.22l.38-.52,.09-.31Z"/><path class="cls-1" d="M215.22,1039.89s-.4-.31-.49-.24-.41,.61-.41,.61c0,0-.1,.59-.05,.65s.58,0,.58,0c0,0,.27-.53,.3-.59s.08-.43,.08-.43Z"/><path class="cls-1" d="M210.98,1038.52l-1-.16h-.5l-.24,.39s.05,.4,.06,.45,.67,.24,.67,.24c0,0,.55-.13,.57-.14s.38-.3,.38-.3l.07-.49Z"/><path class="cls-1" d="M198.86,1034.83l-.85-.18-.54,1.17v.86l.39,.42,.67-.32,.07-1.11s.24-.65,.26-.68,0-.15,0-.15Z"/><path class="cls-1" d="M217.96,1033.93s-.74,1.18-.78,1.21-.89,.88-.89,.88c0,0-.33,.67-.28,.75s.67,1.42,.67,1.42c0,0,.74,.29,.78,.29s1.12-.47,1.12-.47l.35-1.25s.58-.78,.58-.88,.04-.62,.04-.62c0,0-.21-.75-.24-.83s-1.03-.6-1.03-.6l-.33,.11Z"/><path class="cls-1" d="M208.09,1027.17l-.38,.06,.13,.3s.21,.06,.25,0,0-.37,0-.37Z"/><polygon class="cls-1" points="290.03 1023.9 288.31 1026.38 286.18 1029.59 284.81 1029.47 283.56 1029.26 283.6 1028.34 285.39 1026.75 285.68 1025.11 286.2 1022.09 285.7 1020.78 288.16 1022.03 289.47 1022.49 290.03 1023.26 290.03 1023.9"/><polygon class="cls-1" points="284.85 1019.9 283.31 1017.92 282.68 1017.76 282.68 1018.32 283.2 1018.83 284.85 1019.9"/><path class="cls-1" d="M291.06,1008.57s-.67,2.04-.75,2.19-1.4,1.9-1.46,1.96-2.33,1.63-2.4,1.65-1.6,.5-1.6,.5l-.92-.52-1.81-.38,.25-.31,2.17,.02,.73-.67,.52-1.02,.21-.81,1.44,.06,.73-.71,1.21-.56,1.69-1.4Z"/><polygon class="cls-1" points="271.2 1018.03 270.41 1017.76 270.81 1017.34 271.31 1017.65 271.2 1018.03"/><path class="cls-1" d="M260.89,1011.38l.25,.33h.44s-.12-.31-.21-.33-.48,0-.48,0Z"/><path class="cls-1" d="M255.75,1006.62s-.4,1.24-.41,1.26-.74-.26-.74-.26l-.58,.23-1.15,.35-.49-.68-.14-.67s.13-.35,.17-.37,1.14-.83,1.14-.83l.79-.06,.56,.31s.48,.42,.5,.42,.35,.29,.35,.29Z"/><polygon class="cls-1" points="217.11 1003.79 216.69 1004.41 215.15 1004.27 214.22 1003.63 214.11 1002.95 214.6 1002.49 215.05 1002.15 215.73 1002.29 216.28 1002.68 216.76 1002.97 217.11 1003.35 217.11 1003.79"/><path class="cls-1" d="M238.74,993.15s-.74,.61-.74,.61c0,0-.4,.06-.44,.06s-.5-.38-.53-.4-.16-.44-.16-.44l.28-.51,.69-.11,.51,.13,.32,.12,.07,.55Z"/><path class="cls-1" d="M257.32,995.54s-.61-.12-.49,0,.39,.38,.39,.38l.15,.09,.12-.26-.17-.2Z"/><polygon class="cls-1" points="251.47 990.18 251.16 990.11 251.08 989.86 251.42 989.99 251.47 990.18"/><path class="cls-1" d="M297.67,1004.33l-1.09,.43-.44,.51-.89,.5-1.31,.34-.78,.58-.29,.38,.64,.38s1.52-.47,1.61-.47,1.16,.11,1.16,.11l3.28,1.22,2.6-.28,.95-1.38s-.64-.99-.75-1.05-.57-1.16-.57-1.16l-.21-3.6s.61-2.4,.61-2.44,.68-1.15,.68-1.15l-.11-2.54v-.93s-.11-.57-.11-.6-.61-.54-.61-.54l-.48,.16-.46,.8-.64,.35-.68,.33,.28,.48,.47,.94,.25,1.34-.49,1.21-.59,1.72-.5,1.11s-.27,.6-.25,.67,.03,.97,.03,.97l-.83,.89-.47,.72Z"/><path class="cls-1" d="M302.62,991.11l-.62,1.07,.29-.18,.3-.57,.35-.15s.76,.25,.78,.26,.68,.17,.68,.17c0,0,.43-.05,.46-.07s.41-.15,.43-.15,3.37-.42,3.37-.42l2.95,.15,1.89-.45s1.37-2.1,1.35-2.15-.1-2.38-.1-2.38l1.42-2.31-.25-1.32-.89-.88v-.57l-.51,.44-1.43,1.56-.57,.17v.58l.24,.26-1.33,1.53-3.19,.17-1.07,.67-2.54,2.43-1.92,1.81-.07,.32Z"/><polygon class="cls-1" points="316.44 979.03 315.67 980.01 315.73 980.6 316.06 980.86 316.88 980.56 316.84 979.34 316.44 979.03"/><path class="cls-1" d="M312.87,963.9h-1.52l.29,3.27,2.17,1.65-.44,2.04,.73,.73,1.02,.96s.46,.94,.55,1.02,.7,1.42,.7,1.42l.29,.69s.88,.1,1,.12,1.19-.12,1.19-.12l-.06-.94s-.06-1.35-.06-1.46-.38-1.42-.38-1.42c0,0-.67-.88-.75-.94s-2.06-2.23-2.06-2.23l-2.67-4.79Z"/><path class="cls-1" d="M289.65,969.61l-.46,.11s-.01,.38,.1,.39,.36,.04,.35,.01,.06-.34,.06-.34l-.06-.17Z"/><path class="cls-1" d="M269.76,960.11l-1.4,.52s-.94,.02-.96,.12-.27,1.62-.27,1.62l.77,.52,1.08-.19,.77-.77,.42-.75,.56-.25-.21-.58-.52-.46-.25,.21Z"/><path class="cls-1" d="M276.43,951.32l-.48-.27-.56,.27v1.06l-.56,.75s.04,.35,.21,.44,1,.33,1,.33l.77-.1s.21-1.04,.19-1.21-.56-1.27-.56-1.27Z"/><path class="cls-1" d="M152.61,969.56l-3,2.82s-2.22,2.24-2.39,2.29-1.5-.83-1.5-.83l-.28-3.56v-2.78l2.06-2.89,1.06-.78h2.28l.28,2,.94,1.83,.56,1.89Z"/><path class="cls-1" d="M143.89,982.61l-5.28-3.61-4.06-.22-2.61,1.11-1,2.17s-.5,2.72-.67,3-1.78,3.94-1.78,4.11,.72,2.61,.94,2.72,2.89,1.72,2.89,2,1.22,1.89,1.22,1.89l1.72,1.67s2.56,.56,3.11,.56,3.72-.17,3.89-.22,2.22-.89,2.39-1.22,1.17-3.11,1.17-3.11l.61-3-1-3.11-1.22-3-.33-1.72Z"/><polygon class="cls-1" points="239.14 761.13 237.62 759.92 234.95 758.42 233.2 756.94 232.26 757.69 231.16 757.44 229.85 758.09 229.1 759.51 227.81 762.09 229.1 763.88 230.28 766.22 232.74 767.72 234.78 767.34 236.72 767.01 237.91 764.11 239.03 762.47 239.14 761.13"/><path class="cls-1" d="M380.36,774.94l-.38,.09,.05,.29s.22,.1,.25,.1,.08-.48,.08-.48Z"/><polygon class="cls-1" points="377.24 773.2 376.68 771.96 376.36 772.29 376.43 772.8 376.69 773.2 376.95 773.4 377.24 773.24 377.24 773.2"/><path class="cls-1" d="M385.25,767.02s-.49,.19-.49,.19l-.07,.22,.36,.06,.31-.39-.12-.08Z"/><polygon class="cls-1" points="379.97 764 379.44 764.12 379.84 764.33 379.97 764"/><path class="cls-1" d="M364.98,765.48l-.28,.09s.05,.18,.08,.21,.2,.12,.2,.12c0,0,.23,.07,.29,.09s.12-.26,.12-.26l-.07-.21-.34-.05Z"/><path class="cls-1" d="M360.99,765.74l-.39,.2,.04,.3s.36,.09,.45,.1,.24-.04,.28-.1-.04-.36-.04-.36l-.34-.13Z"/><polygon class="cls-1" points="370.01 760.99 369.85 761.38 370.39 761.51 370.39 761.25 370.01 760.99"/><polygon class="cls-1" points="378.08 759.3 377.24 759.49 376.8 759.8 376.8 760.38 377.1 760.61 377.89 760.65 378.31 760.38 378.72 760.09 378.72 759.76 378.37 759.4 378.08 759.3"/><polygon class="cls-1" points="367.69 756.28 367.22 756.5 367.46 756.75 367.69 756.28"/><polygon class="cls-1" points="354.81 759.98 354.81 759.08 353.75 759.08 353.47 759.53 353.67 759.98 354.14 760.44 354.61 760.44 354.81 759.98"/><polygon class="cls-1" points="340.7 759.13 340.53 758.94 340.41 759.17 340.54 759.45 340.7 759.13"/><path class="cls-1" d="M374.97,752.83s-.29-.01-.32,.1-.14,.57-.17,.64-.13,.29-.06,.36,.44,.29,.44,.29h.65s.11-.5,.11-.54-.28-.44-.28-.44l-.39-.4Z"/><polygon class="cls-1" points="351.47 751.44 351.14 751.15 350.64 751.44 351.06 751.86 351.47 751.44"/><path class="cls-1" d="M372.12,752.12l-.11-.89-.78-.69-.84,.19s-.25,.47-.21,.52,.16,.47,.21,.56,.52,.6,.52,.6c0,0,.34,.24,.38,.25s.59,0,.59,0l.27-.53h-.03Z"/><path class="cls-1" d="M363.99,749.54s-.31,.03-.31,.08,0,.18,0,.18c0,0,.12,.06,.22,.06s.29-.16,.29-.16l-.2-.16Z"/><path class="cls-1" d="M361.93,749.36s-.31-.15-.35-.08-.19,.26-.19,.26c0,0-.14,.22-.14,.25s.09,.19,.15,.2,.41,.04,.41,.04l.19-.24s.04-.17,.05-.21-.12-.21-.12-.21Z"/><path class="cls-1" d="M358.23,748.98l-.46-.24-.53,.24h-.54s-.3-.13-.32-.15-.16-.21-.2-.22-.5-.05-.5-.05l-1,.18s-.36,.45-.38,.47-.4,.21-.43,.23-.45-.23-.49-.27-.29-.39-.29-.39c0,0,.11-.34,.16-.38s.57-.3,.57-.3c0,0,.16,.28,.27,.28s.6-.3,.6-.3l.07-.29s.55-.18,.63-.21,.49-.11,.49-.11l.31-.3,.7-.03,.53,.38,.89,.17,.35,.1,.24,.4,.13,.25-.33,.18-.35,.14-.09,.2Z"/><path class="cls-1" d="M377.5,751.15s-.27-.29-.29-.29-.17-.1-.18-.09,.03,.27,.05,.29,.16,.24,.16,.24l.26-.15Z"/><path class="cls-1" d="M376.98,750.26l-.36-.33s-.15-.05-.16-.17-.07-.1-.02-.2,.1-.33,.1-.33c0,0,.03-.17,.04-.37s-.05-.47-.05-.47c0,0,.05-.09-.11-.2s-.52-.27-.52-.27c0,0-.21-.51-.21-.52s.06-.53,.06-.53l.22-.1,.22,.21,.2,.28,.25,.2,.19,.12s.16,.15,.17,.15,.35,.05,.35,.05l.26,.17v.25c0,.07-.08,.29-.08,.29l-.22,.4-.43,.18-.18,.29-.02,.21,.27,.1s.03,.08,.07,.16-.05,.43-.05,.43Z"/><path class="cls-1" d="M379.52,748.41s-.08-.35-.13-.36-.44,.18-.44,.18l.04,.24,.15,.09,.35-.15h.03Z"/><path class="cls-1" d="M370.17,746.71s-.33,0-.34,.03,.05,.26,.08,.25,.26-.17,.26-.17v-.11Z"/><polygon class="cls-1" points="367.72 744.29 366.96 744.67 366.93 745.04 367.18 745.42 367.72 745.11 367.83 744.51 367.72 744.29"/><polygon class="cls-1" points="364.51 743.97 364.36 744.36 364.65 744.5 364.51 743.97"/><polyline class="cls-1" points="381 743.25 380.08 742.86 380.33 743.42 381 743.42"/><path class="cls-1" d="M348.64,741.25l-.35,.08-.28,.31s.02,.15,.11,.16,.52-.12,.52-.12v-.42Z"/><path class="cls-1" d="M347.58,741.1s-.49,1.05-.49,1.05l-.74-.53,.11-.45,1.01-.16,.11,.09Z"/><path class="cls-1" d="M349.22,739.15l-.47,.21s-.49,.09-.55,.11-.58-.56-.61-.7-.56-.84-.56-.84l.52-.78,.75-.37s.05,.45,.03,.51,.54,.35,.54,.35l.31,.08,.04,.98,.2,.24-.2,.2Z"/><path class="cls-1" d="M349.91,738.78l-.06,.56,.89,.09s.69-.24,.7-.32,.46-1.77,.47-1.81,.09-1.21,.09-1.21l.68-1.14,.61-1.19s.62-.97,.64-.99,1.48-.77,1.48-.77l1.39-.59,1.4,.31,.53,.11,.93-.28,.37-.24,.26-.22s-.27-.19-.32-.2-.1,.16-.33,0-1.35-.64-1.35-.64c0,0-.64,.52-.66,.52s-1.62-.07-1.62-.07l-1.05-.49-.83,.8-1.4,.2-1.33,.34-.53,1.04-.55,.83-.82,.89-.34,.37,.41,.03s.64-.24,.67-.24,.67,.05,.67,.05l.4,.13,.03,1.16-.48,.09,.04,.59-.34,.13s-.02,.25,0,.27,.43,.67,.43,.67l-.2,.66-.53,.49-.37,.09Z"/><path class="cls-1" d="M348.68,736.16s.34-.73,.34-.73l.07-.24-.53,.26-.29,.4,.04,.31h.38Z"/><path class="cls-1" d="M356.11,742.81l.09-1.29h-.38l-.4,.57v.86l-.53,.9-.56,.88,1.53-.62,1.61,.03,1-.27s-.05-.34-.16-.41-.81-.41-.89-.44-.51,.02-.51,.02l-.39,.18-.44-.41Z"/><path class="cls-1" d="M361.22,742.63s-.02-.76,0-.8-.74-.4-.74-.4c0,0-.38,.18-.41,.21s-.35,.3-.35,.3c0,0,.12,.69,.16,.69s.49,.34,.49,.34h.56l.29-.34Z"/><path class="cls-1" d="M359.88,744.24v-.49s-.35-.17-.39-.16-.25,.25-.25,.28,.16,.21,.21,.24,.43,.12,.43,.12Z"/><path class="cls-1" d="M365.36,741.24s-.92-.86-.94-.92-.49-.8-.49-.8l.27-1.07-.94-1.04,.12-1.29,.49-1.06-.36-.23-2.29,1.29-1.02,.57-2.31,.92-1.58,.44-.19,2.29,.58-.46,.73-.86,.74-.69s.38-.14,.41-.16,.47-.52,.47-.52c0,0,.6-.25,.72-.27s1.06-.04,1.06-.04l1.17,.3,.35,.4,.1,.37,.77,.22,.51,.42,.04,.59s0,.39,.01,.46,.12,.72,.12,.72l.28,.44,.59,.2,.62-.21h-.05Z"/><path class="cls-1" d="M364.28,734.23l.23-.6s-.26-.12-.31-.06-.41,.56-.41,.56l.22,.35,.27-.25Z"/><path class="cls-1" d="M366.97,737.72l-.49-.5-.39,.5,.03,.46s.03,.4,.07,.43,.46,.23,.46,.23l.31-.34v-.77Z"/><polygon class="cls-1" points="369.41 738.2 368.38 738.26 367.96 738.65 367.98 739.07 368.32 739.36 368.85 739.51 369.47 739.42 369.82 739.15 369.95 738.74 369.7 738.38 369.41 738.2"/><path class="cls-1" d="M369.89,741l-.55,.14s-.09,.25-.07,.3,.62,.09,.62,.09v-.52Z"/><path class="cls-1" d="M374.23,744.08l.65-1.24s-.11-2.66-.08-2.71,.43-1.8,.38-1.82-1.47-1.97-1.47-1.97c0,0-1.28-.25-1.31-.31s-1.5-2.02-1.5-2.02l-1.63-.87-.73,.12,.14,.98,1.06,.72,1.24,.6,.7,.49,1.18,1.46-.23,.51-.86-.09-.46,1.04-.55,1.52,.49,1.09,1.55,1.74,1.04,.64,.41,.11Z"/><path class="cls-1" d="M369.07,735.89s-.06-.33-.11-.33-.35,.28-.35,.28l.19,.2,.27-.15Z"/><path class="cls-1" d="M362.62,730.59s-.29-.09-.3-.05,0,.28,0,.28l.3-.1v-.12Z"/><polygon class="cls-1" points="363.88 728.32 363.96 727.92 363.51 727.65 363.01 727.75 363.49 728.13 363.88 728.32"/><polygon class="cls-1" points="374.85 735.64 374.6 735.22 374.24 735.33 374.49 735.64 374.64 735.8 374.85 735.64"/><path class="cls-1" d="M381.85,741c-.08-.09-.43-.5-.56-.45s-.89,.01-.89,.01l-.15,.38,.08,.42,.79,.4,.46,.1s.46,.01,.46-.03-.19-.82-.19-.82Z"/><polygon class="cls-1" points="380 739.34 380.04 739.07 379.77 739.07 379.76 739.29 380 739.34"/><path class="cls-1" d="M382.47,739.91s.69-.77,.7-.84,.02-.81,0-.87-.49-.72-.56-.78-.69-.74-.69-.74l-.14-.89-.64-.04-.62-.25s-.3-.06-.27-.22,.26-.44,.42-.56,.72-.18,.84-.18,.51,.19,.57,0,.33-.65,.33-.65c0,0,.03-.69,.04-.76s-.01-.4-.01-.4l-.22-.39-.45-.19s-.54,.08-.74,.15-1.01,.32-1.01,.32l-.49-.16,.21-.59,1.26-1.21,.92-1.23-.68-1.19-.69-1.81-.94,.81s-1.36,1.04-1.41,1.08-1.36,1.39-1.36,1.39l-.28,1.75-.28,.43s-.71-.14-.75-.16-.28-.81-.28-.81c0,0,.05-.81,.21-.95s.27-.46,.26-.51-.76-.16-.76-.16l-1.62,2.29,.54,2.04s.33,.3,.35,.39,.37,.26,.55,.3,.57,.05,.57-.06-.03-.96-.03-.96c0,0-.39-.72-.52-.91s-.51-.86-.51-.86c0,0-.17-.25-.06-.47s.13-.27,.31-.4,.21-.5,.31-.28,.14,.6,.14,.6l-.06,.55,.36,.49,.51,.22,.5,.31s.33,.47,.45,.59,1.07,.82,1.07,.82l1.42,1.55,.6,1.17s-.77,.42-.81,.49-1.42,.61-1.42,.61c0,0,.18,.74,.17,.78s.62-.31,.62-.31l.93-.28s.72,.27,.81,.3,.99,0,1.06,.01,1.01-.03,1.01-.03l.24,.91,.02,.71Z"/><path class="cls-1" d="M390.37,736.36c-.06,.01-1.4,.69-1.4,.69l.07,2.65-.19,.5-1.49-1.51,.51-1.72,1.56-1.46,.88,.16,.07,.62v.07Z"/><path class="cls-1" d="M396.14,739.07l-.22-1.21,.39-.72s.82-.03,.79-.21-.36-1.14-.44-1.13-.82,.7-.82,.7l-.32,1.01,.15,1.1,.47,.46Z"/><polygon class="cls-1" points="396.51 735.22 397.1 734.83 397.36 733.42 397.1 731.94 396.51 732.13 396.11 733 396.31 733.65 396.18 734.79 396.51 735.22"/><path class="cls-1" d="M397.1,730.42c-.01-.07-.43-.92-.43-.96s.33-.49,.36-.54,.07-.38,.07-.38l-.67,.42-.25,.62,.36,.67,.26,.28,.29-.11Z"/><path class="cls-1" d="M390.74,734.42l.1-.71-.54-.44-1.33,.07-.6,.12,.14,.38,.47,.16,.89,.21s.39,.42,.44,.42,.43-.21,.43-.21Z"/><polygon class="cls-1" points="389.6 731.67 389.86 730.25 389.18 730.61 388.29 731.32 388.29 731.75 389.33 732.04 389.6 731.67"/><path class="cls-1" d="M383.37,732.89s-1.03-.33-1.03-.33l.04-.81,.86-1.13,.31-1.99-.19-1.44-1.02-1.12-1.8-.88-1.01,.56s-.92,.25-.98,.19-.5-.88-.5-.88l.67-.5,1.82-.21,.46-.77,.76-.44,.81,.1,1.33-1.46,.96-.75v-1.23s.67-1.9,.77-1.79-.19-.75-.25-.94-.63-.94-.67-1.02-1.98-.52-1.98-.52l-1.29-.27-.25,.35,.5,.77-.15,.67,1.63,.81,1.12,1.27-.21,1.56-2.58,2.04-1.5,.79-.35-.96s.71-.67,.52-.71-1.29,.23-1.46,.46-.83,.92-.83,.92c0,0-.31,.19-.38-.04s-.29-.92-.29-.92c0,0-.81-.35-.96-.33s-1.31,.5-1.31,.5l-1.08,.06-.52,.5s-.27,.33-.12,.52,.31,.56,.31,.62-.19,.62-.19,.69,.02,.23,.17,.29,.72,.31,.72,.31l.4,.65,.42-.92-.33,1.38,.67,.35s-.44,.56-.54,.52-1.67,.46-1.67,.46l-2.08,2.04s-.92,.66-1.21,.73-2.38,.14-2.38,.14l-.54,.17-.31-.92-.12-1.31-.63-.77s-.04-.38,.08-.71,.19-.58,.25-.82-.87-1.61-.83-1.68-.76-.58-.76-.58c0,0,0-.69,0-.77s-.56-.42-.6-.6-.57-1.02-.57-1.02l1.03-1.35,.4-1.29,2-.35s.58-.08,.65-.1,.17-.31,.23-.31,.6,.19,.6,.19l.79,.19s.85-.15,.92-.15,.52,.19,.52,.19c0,0,.37,.79,.48,.81s.92,.1,.92,.1c0,0,.29-.17,.5-.21s.5-.08,.58-.27,.1-.35,.25-.54,.48-.31,.58-.44-.03,.04,.31-.17,.34-.19,.47-.46,.15-.33,.31-.58,.12-.15,.31-.44,.12-.4,.25-.56,.17-.19,.35-.38,.54-.4,.71-.56,.15-.15,.35-.42,.04-.15,.29-.33,.46-.42,.46-.42c0,0,1.04-2.1,1.04-2.19s.06-2.79,.06-2.79l-.88-1.21s.15-.42,.33-.27,.73,.71,.9,.71,1.06-.15,1.23-.21,.98-.54,.98-.54c0,0,.33-.4,.67-.48s3-1.54,3-1.54l.77,.46,.92,.58,1.23,1.44,1.31,.1,.27-.62,.77-.08,.85,.52,.58-.29,.17-.4,.81,.56,.4-.5,.62-.06,1.06,.15,.08,.94,1.17,.48,.6,.81-.15,1.5-.85,1.17-.15,.73,.46,.75,1.29-.15s.25,.65,.23,.73-.9,1.04-.9,1.04l-.17,.96s.52,.62,.63,.62,1.02,.48,1.02,.48l.73,.19,1.06-.17,.35,.48,.73,.79,.25,1.62s-.27,1.35-.27,1.42-.31,1.38-.31,1.38c0,0-1.04-.12-1.23-.12s-.9,.06-.9,.06l-.85,.08s-.33,.08-.33,.02,.13-.42,.23-.48,.29-.56,.29-.56c0,0-.38-.44-.52-.5s-.71-.12-.71-.12l-.21,.27-.4-.69s-.04-.23,.06-.44,.46-.88,.4-1.02-.04-.4-.19-.58-.4-.13-.46-.29-.19-.25-.19-.46-.23-.71-.27-.81-.1-.08-.25-.35-.27-.27-.46-.46-.48-.25-.54-.23-.19,.27-.25,.27-.42-.17-.48-.15-.31,.29-.31,.29l.52,.29s.04,.06,.04,.15-.33,.62-.33,.62l-.06,.35s.75,.17,.81,.17,.12-.12,.31,.06,.6,.46,.73,.54,.17,.35,.15,.58-.21,.96-.19,1.02-.21,.15-.21,.15c0,0-.73-.08-.81-.04s-.46,.33-.46,.56-.12,.52-.17,.65-.42,.23-.48,.25-.27-.12-.73-.17-1-.15-1.19-.33-.5-.83-.71-.94-.44-.21-.69-.31-.56-.25-.62-.25-.33,.04-.33,.23-.19,.71-.06,.88,.4,.44,.4,.44c0,0,.69,.23,.79,.27s.23-.25,.33-.25,.4,.58,.4,.71,1.42,.38,1.42,.38c0,0,.4,.33,.46,.35s0,.29-.04,.46-.4,.48-.46,.35-.17-.6-.38-.42-.81,.19-.81,.19l-.33,.02-.42,.46s.88,.23,.94,.31,.17,.54,.17,.54c0,0-.21,.06-.29,.04s-.29-.21-.29-.21c0,0-.1,.25,.02,.35s.02-.04,.12,.1,.1,.46-.08,.5-.44,.12-.54,.12-.54-.23-.54-.23c0,0-.4-.27-.21-.4s.23-.42,.02-.44-.81-.21-.94-.08-.25,.56-.25,.56c0,0-.21-.08-.27,.21s.02,.56,.02,.56l-.27,1s.54,.77,.56,.83-.25,1.46-.25,1.46c0,0-.69,.15-.71,.31s-.88,.77-.88,.77c0,0-.35-.97-.25-.99s.77-.61,.88-.67,.31-.88,.31-.88c0,0-.15-.6-.17-.69s-.27-.71-.27-.71l-2.06-.48-.6,.34,.52,.93s.29,1.12,.31,1.25,.02,1.27,.06,1.42,.02,.62,.02,.77v.65l-.88,.58-.81,.85Z"/><path class="cls-1" d="M390.12,726.34l-.42,1.17s-.19,.52,0,.48,1.4-.9,1.52-.94,.46-.71,.46-.71h-1.56Z"/><path class="cls-1" d="M391.22,728.26l-.75,.19s-.1,.46,.18,.4,.57-.58,.57-.58Z"/><path class="cls-1" d="M399.16,725.17c0-.08-2.42-2.06-2.42-2.06l-3.08,1.03,.25,1.26,1.6,1.05s1.02-.57,1.04-.66-.04-.96-.04-.96l1.98,.21,.67,.67v-.54Z"/><path class="cls-1" d="M377.37,728.26l-.4,.04s.02,.2,.08,.2,.36-.05,.36-.05l-.04-.18Z"/><path class="cls-1" d="M310.26,573.53l-2.79,1.71-1,1.62,.71,1.5,2.17-.71s.96-2,.92-2.17,0-1.96,0-1.96Z"/><polygon class="cls-1" points="339.51 608.15 337.68 608.15 337.31 609.03 338.14 609.32 339.31 608.59 339.51 608.15"/><path class="cls-1" d="M434.74,85.59l-1.85,2.62-5.4,6.17-4.04-1.92s-.06-1.81,.06-2.04,.52-1.21,.31-1.58-2.29-1.56-2.29-1.56c0,0,1.46-.6,1.52-.62s1.38-.06,1.38-.06c0,0,2.56-1.06,2.62-1s2.04,.17,2.04,.17l2-.29,2.42-2.23,.79-.52,.96,1.69-.52,1.19Z"/><path class="cls-1" d="M437.74,65.79s-1.46-2.67-1.46-2.75-2.17-1.51-2.17-1.51l-.72,.83v2.92l.11,2.17,1.5-.35,1.14-.61h.79l.81-.69Z"/><path class="cls-1" d="M4.61,2.28l-2.28,2.33L0,8.61s.28,2.22,.33,2.56,3.06,2.5,3.06,2.5l2.61,2.39s3.72,.39,3.89,.39,2.94-.56,3.22-.61,2.39-2.56,2.39-2.56l1.44-3.06s.44-2.78,.56-3.06,.28-3.33,.28-3.33l-3.33-1.94-2.33-1.89L5.67,.61l-1.06,1.67Z"/></g></g></svg>