<?xml version="1.0" encoding="UTF-8"?><svg id="Ebene_2" xmlns="http://www.w3.org/2000/svg" viewBox="0 0 697.7 703.02"><defs><style>.cls-1{fill:#4c5156;}</style></defs><g id="Ebene_13"><g><g><path class="cls-1" d="M551.01,550.59v.08l-.04,.05-.03,.03-.06,.02h-.03l-.02,.03v.09l.03,.05,.02,.04v.13l-.03,.03-.02,.03-.03,.06-.02,.04v.24l.02,.05,.02,.04,.02,.03,.03,.02,.03,.02,.03,.02,.02,.02v.24l-.04,.06-.04,.03-.03,.06-.04,.05h-.14l-.04-.02-.04-.04v-.05l-.03-.02v-.04l-.02-.02v-.13l-.03-.11s-.01-.1-.01-.1,0-.13,0-.13v-.09l.03-.06,.02-.08v-.06l.03-.1,.02-.04,.02-.08,.03-.06,.04-.11,.03-.11,.03-.06,.05-.05,.04-.02h.15l.03,.02"/><polyline class="cls-1" points="551.45 549.55 551.46 549.66 551.47 549.69 551.49 549.72 551.49 549.75 551.47 549.78 551.39 549.8 551.32 549.79 551.27 549.78 551.25 549.75 551.21 549.74 551.19 549.72 551.17 549.69 551.18 549.62 551.19 549.59 551.23 549.56 551.25 549.55 551.28 549.53 551.3 549.51 551.36 549.51 551.4 549.51 551.43 549.53"/><polyline class="cls-1" points="551.39 549.23 551.42 549.26 551.42 549.33 551.44 549.38 551.46 549.41 551.5 549.41 551.52 549.37 551.56 549.32 551.6 549.28 551.61 549.23 551.63 549.17 551.61 549.1 551.56 549.08 551.49 549.08 551.46 549.09 551.42 549.1 551.4 549.13 551.39 549.19"/><polygon class="cls-1" points="551.56 552.31 551.55 552.26 551.52 552.26 551.5 552.28 551.46 552.3 551.44 552.31 551.44 552.34 551.47 552.36 551.49 552.38 551.51 552.41 551.56 552.45 551.59 552.46 551.63 552.48 551.65 552.49 551.69 552.51 551.71 552.53 551.73 552.55 551.75 552.57 551.77 552.6 551.79 552.66 551.81 552.71 551.82 552.73 551.86 552.75 551.91 552.74 551.93 552.73 551.9 552.69 551.88 552.65 551.88 552.59 551.86 552.52 551.86 552.45 551.88 552.44 551.89 552.41 551.9 552.38 551.89 552.36 551.86 552.35 551.83 552.33 551.8 552.32 551.77 552.31 551.73 552.32 551.71 552.35 551.67 552.37 551.64 552.38 551.6 552.38 551.56 552.36 551.56 552.33 551.56 552.31"/><polygon class="cls-1" points="552.02 552.6 551.98 552.62 552.01 552.65 552.08 552.66 552.18 552.66 552.26 552.65 552.3 552.63 552.34 552.6 552.37 552.59 552.4 552.56 552.45 552.55 552.52 552.5 552.6 552.46 552.66 552.42 552.73 552.37 552.78 552.34 552.82 552.3 552.88 552.26 552.94 552.23 553 552.18 553.07 552.14 553.1 552.12 553.12 552.09 553.17 552.08 553.21 552.05 553.24 552.02 553.28 551.99 553.34 551.96 553.37 551.93 553.39 551.91 553.4 551.86 553.37 551.85 553.34 551.86 553.32 551.88 553.27 551.92 553.22 551.95 553.11 551.99 552.98 552.09 552.91 552.12 552.8 552.2 552.74 552.26 552.67 552.31 552.59 552.34 552.55 552.36 552.46 552.43 552.39 552.47 552.34 552.5 552.29 552.54 552.25 552.58 552.2 552.59 552.16 552.6 552.02 552.6"/><polygon class="cls-1" points="553.48 551.79 553.47 551.82 553.51 551.83 553.56 551.81 553.61 551.78 553.75 551.68 553.93 551.56 554 551.52 554.09 551.47 554.13 551.43 554.21 551.39 554.65 551.15 554.74 551.12 554.86 551.08 554.95 551.04 555.11 550.99 555.25 550.95 555.32 550.94 555.4 550.93 555.44 550.9 555.48 550.89 555.52 550.86 555.49 550.8 555.45 550.77 555.38 550.78 555.34 550.77 555.32 550.74 555.3 550.69 555.3 550.53 555.25 550.49 555.22 550.53 555.09 550.72 554.97 550.84 554.85 550.95 554.8 551 554.58 551.08 554.44 551.15 554.15 551.29 554 551.41 553.93 551.47 553.85 551.5 553.79 551.56 553.71 551.59 553.67 551.63 553.6 551.69 553.56 551.73 553.5 551.76 553.48 551.79"/><polygon class="cls-1" points="555.73 550.63 555.71 550.62 555.69 550.63 555.7 550.65 555.73 550.67 555.73 550.68 555.76 550.66 555.75 550.64 555.73 550.63"/><path class="cls-1" d="M555.71,550.27v.07l-.04,.02v.02l.05,.02h.05l.05,.02v.02h.09v-.24l-.02-.05v-.09l-.05-.11-.03-.09-.04-.07-.04-.09-.05-.06-.05-.06-.07-.11-.06-.09-.02-.04-.06-.12s-.25-.36-.25-.36-.15-.25-.15-.25l-.1-.14-.11-.26-.04-.13-.03-.09-.03-.13v-.46l.02-.08,.02-.15v-.1l-.02-.06-.06,.08-.03,.1-.02,.07v.16l-.02,.25v.32l.05,.12,.12,.31,.11,.26,.07,.19,.07,.14,.1,.17,.12,.19,.14,.2,.06,.09v.08l-.04,.24-.1,.14h-.06l-.04,.03-.02,.02,.02,.03h.08l.09-.03h.06l.03-.02h.03l.04,.02,.06,.02,.04,.02,.03,.03,.03,.03Z"/><polygon class="cls-1" points="555.35 546.05 555.3 546.09 555.26 546.16 555.21 546.25 555.13 546.3 555.1 546.37 555.07 546.44 555.01 546.49 554.96 546.54 554.95 546.58 554.99 546.6 555.04 546.56 555.08 546.51 555.14 546.44 555.19 546.37 555.26 546.32 555.29 546.24 555.31 546.19 555.34 546.12 555.35 546.06 555.35 546.05"/><path class="cls-1" d="M555.45,545.63l-.04,.02-.03-.04v-.1l-.03-.07-.04-.23-.04-.16v-.32l.02-.17v-.11l.03-.1,.02-.05,.03,.03v.08l.02,.56s.02,.12,.02,.13,.01,.17,.01,.17l.03,.15v.2Z"/><polygon class="cls-1" points="558.52 541.07 558.44 541.14 558.37 541.21 558.28 541.27 558.2 541.37 558.15 541.42 558.08 541.48 558 541.48 557.93 541.47 557.91 541.43 557.89 541.39 557.93 541.32 558.02 541.28 558.23 541.18 558.35 541.09 558.45 541.02 558.49 540.93 558.54 540.85 558.57 540.79 558.59 540.74 558.6 540.57 558.63 540.5 558.66 540.46 558.72 540.45 558.71 540.49 558.66 540.55 558.63 540.65 558.62 540.73 558.65 540.79 558.64 540.86 558.6 540.96 558.59 541.06 558.52 541.07"/><polygon class="cls-1" points="561.95 537.93 561.83 538.01 561.71 538.08 561.55 538.11 561.29 538.13 561.15 538.19 560.99 538.24 560.88 538.29 560.78 538.35 560.78 538.38 560.87 538.38 560.96 538.37 561.06 538.32 561.19 538.3 561.35 538.28 561.51 538.27 561.62 538.26 561.7 538.22 561.81 538.13 561.92 538.05 561.95 537.99 561.95 537.93"/><polygon class="cls-1" points="562.93 537.25 562.81 537.21 562.9 537.1 563.11 537 563.21 536.97 563.33 536.93 563.39 536.87 563.47 536.83 563.61 536.83 563.67 536.76 563.81 536.69 563.95 536.62 564.09 536.53 564.21 536.48 564.3 536.46 564.34 536.41 564.39 536.34 564.41 536.28 564.45 536.31 564.47 536.35 564.46 536.41 564.41 536.47 564.39 536.53 564.3 536.63 564.19 536.72 564.06 536.82 563.84 536.95 563.67 537.03 563.46 537.08 563.26 537.16 563.1 537.2 563.03 537.19 562.99 537.24 562.95 537.3 562.87 537.33 562.78 537.37 562.7 537.41 562.72 537.37 562.8 537.32 562.87 537.28 562.93 537.25"/><path class="cls-1" d="M567.15,534.56l-.14,.12-.17,.09-.19,.1-.12,.09s-.15,.12-.16,.12-.15,.1-.15,.1l-.08,.08-.1,.02-.09,.04v.03l.03,.03h.09l.1-.04,.15-.1,.16-.1,.17-.09,.14-.09,.08-.05,.08-.04,.09-.07,.09-.09,.05-.05v-.1Z"/><polyline class="cls-1" points="568.6 533.59 568.83 533.49 568.99 533.42 569.19 533.37 569.31 533.33 569.43 533.32 569.57 533.32 569.64 533.34 569.81 533.27 570.01 533.18 570.33 532.96 570.6 532.75 570.96 532.46 571.18 532.29 571.35 532.08 571.5 531.97 571.59 531.87 571.72 531.78 571.88 531.61 572.05 531.35 572.14 531.21 572.22 531.07 572.32 530.91 572.46 530.73 572.56 530.51 572.58 530.35 572.64 530.2 572.78 529.99 572.96 529.74 573.05 529.58 573.17 529.43 573.15 529.35 573.1 529.3 573.1 529.25 573.21 529.25 573.26 529.15 573.35 528.95 573.41 528.79 573.37 528.67 573.27 528.17 573.21 527.95 572.85 526.98 572.63 526.34 572.53 525.83 572.3 524.97 572.14 524.39 572.06 523.7 572.03 522.46 571.97 522.12 571.88 521.6 571.78 521.3 571.6 520.95 571.21 520.51 570.79 519.36 570.56 518.68 570.29 518.1 569.88 517.21 569.69 516.84 569.53 516.67 569.56 516.58 569.66 516.65 570.06 517.36 570.66 518.61 570.97 519.41 571.35 520.48 571.59 520.8 571.88 521.29 572.11 521.88 572.24 522.41 572.26 522.92 572.24 523.68 572.28 524.41 572.59 525.53 572.68 526.07 572.82 526.51 573.43 528.12 573.75 528.87 573.96 529.33 574.06 529.73 574.08 529.98 573.98 530.18 573.72 530.49 573.15 530.92 572.38 531.51 571.7 532.09 571.09 532.54 570.38 533.13 570.07 533.28 569.75 533.41 569.44 533.45 569.07 533.51 568.77 533.59 568.6 533.63 568.6 533.59"/><path class="cls-1" d="M549.98,544.07l-.07,.13-.03,.02,.04,.05s.05,.02,.06,.01,.1-.03,.09-.03-.01-.08-.01-.09-.05-.08-.05-.08l-.03-.02Z"/><polygon class="cls-1" points="549.24 540.24 549.24 540.01 549.15 539.91 549.03 539.82 548.95 539.78 548.93 539.75 548.91 539.82 548.96 539.92 549.03 540.03 549.11 540.15 549.13 540.2 549.15 540.24 549.21 540.27 549.24 540.24"/><path class="cls-1" d="M546.38,537.01s-.05,.02-.05,.02v.08l.04,.02h.06v-.11l-.04-.02Z"/><path class="cls-1" d="M544.2,528.06l-.06,.04-.08,.03-.06,.02,.08,.06v.06l-.06,.07-.05,.08-.07,.03h-.11l-.06-.12,.02-.08,.05-.06,.1-.05s.08-.05,.08-.05,.08-.05,.08-.05l.03-.02,.07,.02h.03v.03Z"/><polygon class="cls-1" points="548.43 524.42 548.37 524.37 548.17 524.38 548.11 524.4 548.03 524.42 547.96 524.44 547.89 524.49 547.86 524.53 547.83 524.55 547.83 524.58 547.92 524.6 548.12 524.58 548.3 524.59 548.38 524.56 548.44 524.53 548.45 524.44 548.43 524.42"/><polygon class="cls-1" points="551.51 518.81 551.62 518.88 551.78 518.97 551.91 519.04 551.96 519.19 551.96 519.43 551.88 519.53 551.79 519.66 551.75 519.76 551.75 519.82 551.68 519.82 551.61 519.76 551.58 519.62 551.53 519.46 551.47 519.31 551.43 519.26 551.4 519.06 551.4 518.96 551.43 518.87 551.51 518.81"/><path class="cls-1" d="M554.39,514.25s-.08,.02-.08,.02l-.05,.05v.04h.07l.05-.03,.04-.04v-.03h-.02Z"/><path class="cls-1" d="M559.57,513.07s.02-.27,.02-.27l-.07-.09-.12-.04h-.12l-.1,.07-.12,.11-.12,.11-.13,.03-.09,.05,.03,.04,.16-.02h.48l.05,.02,.06,.03,.07-.03Z"/><polygon class="cls-1" points="558.62 512.93 558.45 512.82 558.34 512.77 558.3 512.75 558.2 512.76 558.17 512.84 558.23 512.89 558.36 512.93 558.43 512.96 558.59 512.96 558.62 512.93"/><polygon class="cls-1" points="567.6 514.04 567.49 513.98 567.38 513.98 567.27 514.05 567.27 514.11 567.36 514.17 567.41 514.22 567.48 514.27 567.59 514.25 567.64 514.18 567.63 514.08 567.6 514.04"/><polygon class="cls-1" points="568.68 515.41 568.52 515.03 568.4 514.74 568.32 514.66 568.26 514.65 568.15 514.69 568.07 514.68 568 514.64 567.95 514.62 567.91 514.64 567.97 514.72 568.05 514.82 568.17 514.91 568.35 515.08 568.44 515.17 568.51 515.26 568.61 515.37 568.66 515.43 568.68 515.41"/></g><g><polygon class="cls-1" points="414.2 441.07 414.2 441.19 414.27 441.28 414.33 441.36 414.26 441.45 414.24 441.57 414.24 441.64 414.33 441.71 414.66 441.69 414.93 441.57 415.12 441.53 415.23 441.47 415.29 441.41 415.25 441.35 415.18 441.33 415.04 441.39 414.84 441.31 414.56 441.21 414.31 441.09 414.2 441.07"/><polygon class="cls-1" points="413.35 440.69 413.14 440.43 413.07 440.3 412.97 440.27 412.91 440.32 412.81 440.3 412.68 440.3 412.66 440.35 412.69 440.41 412.81 440.37 412.87 440.38 412.89 440.49 412.87 440.63 412.91 440.75 413.01 440.81 413.22 440.83 413.31 440.76 413.35 440.69"/><polygon class="cls-1" points="412.11 439.55 412.22 439.52 412.35 439.62 412.35 439.72 412.26 439.8 412.51 439.96 412.7 439.96 412.75 439.85 412.57 439.5 412.27 439.02 412.11 438.79 411.93 438.78 411.7 438.93 411.57 439.03 411.55 439.19 411.49 439.28 411.53 439.41 411.67 439.53 411.77 439.61 412.04 439.6 412.11 439.55"/><path class="cls-1" d="M411.43,439.11l-.13,.22,.02,.15,.07,.18-.02,.17v.13l.13-.03,.08-.08h.1l.08,.11,.06,.15,.07,.02,.02,.14s-.09,.15-.09,.16-.16,.14-.16,.14l-.22,.02-.22-.14-.66-.49-.12-.21,.07-.22,.1-.27,.18-.17,.19-.17h.16l.15,.11,.13,.08Z"/><polygon class="cls-1" points="418.07 431.95 417.94 431.95 417.9 432.1 417.98 432.33 418.17 432.53 418.38 432.53 418.47 432.37 418.4 432.2 418.19 432.01 418.07 431.95"/><polygon class="cls-1" points="416.81 431.79 416.61 431.92 416.49 432.03 416.44 432.16 416.62 432.18 416.81 432.1 416.88 431.93 416.85 431.79 416.81 431.79"/><polygon class="cls-1" points="418.28 426.12 418.17 426.09 418.13 426.13 418.14 426.21 418.16 426.26 418.25 426.25 418.28 426.19 418.28 426.12"/><polygon class="cls-1" points="424.95 421.99 425.13 422.13 425.07 422.16 424.9 422.14 424.9 422.05 424.95 421.99"/><polygon class="cls-1" points="424.67 421.7 424.7 421.84 424.66 421.92 424.56 421.94 424.39 421.82 424.22 421.79 424.03 421.81 423.91 421.84 423.82 421.75 423.62 421.4 423.58 421.27 423.6 421.2 423.68 421.15 423.79 421.15 423.94 421.16 424.08 421.18 424.19 421.22 424.33 421.3 424.47 421.45 424.56 421.56 424.62 421.64 424.67 421.7"/><polygon class="cls-1" points="431.3 425.2 431.27 425.3 431.21 425.37 431.13 425.26 431.17 425.17 431.26 425.12 431.3 425.2"/><path class="cls-1" d="M431.72,425.4l-.14,.03-.05,.07,.05,.09,.07,.05,.16-.02s.05-.08,.05-.09-.04-.1-.04-.1l-.08-.05h-.02Z"/><polygon class="cls-1" points="432.15 425.76 432.03 425.8 431.96 425.92 432.01 426.01 432.11 426.05 432.27 426.01 432.28 425.92 432.23 425.8 432.18 425.77 432.15 425.76"/><polygon class="cls-1" points="432.84 426.37 432.68 426.36 432.66 426.53 432.66 426.63 432.7 426.73 432.75 426.76 432.84 426.7 432.88 426.58 432.9 426.51 432.86 426.42 432.84 426.37"/><path class="cls-1" d="M433.06,426.75h-.11l-.03,.07,.03,.04,.02,.08v.06s0,.03,.01,.03h.08l.03-.07v-.08l-.04-.09v-.06Z"/><path class="cls-1" d="M433.33,427l-.14,.02s-.06,.09-.06,.1v.21l.07,.08,.04,.07,.02,.26v.1l.08,.05,.07,.05,.1,.1v.8l-.06,.25-.15,.39-.1,.23-.13,.26-.08,.19-.1,.18v.13s.11-.05,.12-.05,.12-.06,.12-.06l.03-.12v-.16l.06-.1,.07-.11,.23-.11,.1,.03v.07l.1-.03,.11-.07,.4-.3,.19-.23,.05-.18s-.05-.32-.05-.33-.31-.53-.31-.53l-.34-.54-.18-.37-.16-.2-.1-.07Z"/><path class="cls-1" d="M432.79,430.52l.05,.11-.22,.29-.13,.09-.04,.14-.12,.13-.15,.21-.42,.59s-.26,.43-.27,.44-.31,.31-.31,.31-.33,.33-.33,.33l-.24,.23-.08-.03v-.09l.18-.18,.35-.36,.03-.08,.1-.06,.42-.54,.36-.47,.13-.28,.27-.29,.12-.16,.14-.17,.08-.1,.08-.07Z"/><path class="cls-1" d="M428.12,436.05l-.11,.06-.2,.27s-.06,.09-.06,.1,.08,0,.08,0l.15-.2,.12-.11,.05-.12h-.03Z"/><path class="cls-1" d="M428.41,435.67l-.16,.19,.1,.08s.25-.24,.26-.24,.55-.46,.56-.47,.43-.64,.43-.64l.33-.52,.27-.25,.08-.14-.04-.03-.3,.24-.17,.16-.15,.26-.17,.15-.21,.18-.17,.27-.2,.26-.08,.16-.23,.2-.15,.13Z"/><polygon class="cls-1" points="424.15 446.33 424.07 447.32 423.89 447.74 423.62 447.88 423.31 447.74 423 447.4 422.82 447.11 422.76 446.83 422.76 446.6 422.91 446.43 422.98 446.33 422.82 446.2 422.7 446.14 422.7 446.07 422.55 446.07 422.47 445.87 422.65 445.87 422.82 445.71 423.13 445.55 423.56 445.25 423.81 444.98 423.86 444.53 424.04 444.09 424.27 443.69 424.27 443.52 424.8 442.74 424.92 442.35 424.92 441.78 425.02 441.29 425.16 440.77 425.44 440.48 425.72 440.07 426.37 439.01 426.8 438.43 427.27 437.57 427.29 437.34 427.45 437.09 427.39 437.47 427.11 438.08 426.74 438.91 426.1 439.91 425.33 440.83 425.21 441.09 425.03 441.54 425.1 442.23 425.05 442.91 424.78 443.34 424.45 443.66 424.17 444.18 424.08 444.65 423.97 445.23 424.05 445.71 424.14 446.22 424.15 446.33"/></g><path class="cls-1" d="M478.25,338.14l.33,.53,.31,.9,.36,.53,.69-.3,.17-.52-.09-.38-.2-.41-.3-.11-.42-.33-.17-.14,.13-.42,.2-.13,.25,.25,.31,.16,.2-.19,.52,.02,.36,.36,.27,.14,.27-.14,.2,.02-.09,.27-.11,.16,.33,.39,.08,.52,.39,.24-.44,.55-1.2,1.54-.47,.22-.55-.13s-.39-.02-.44-.03-.33-.36-.33-.36l-.63-1.29,.19-.3-1.62-2.58s-1.34-2.25-1.34-2.3-.14-.85-.14-.85l.35-.58h.47l.46,.2-.17,.37h-.35v-.24l-.41,.19,.06,.68,.22,.22,.38-.09-.02-.38-.17-.22,.66-.22,.19,.25,.44,.5,.93,.91,.45,.4,.18,.34-.33,.58,.35,.35-.08,.25-.22,.27-.44,.17,.03,.16Z"/><g><path class="cls-1" d="M198.75,293.85l.16-.16-.05-.14-.18-.38-.13-.23-.24,.06-.11,.07-.07,.19-.04,.31-.11,.1-.17,.1-.13,.06-.04,.16,.02,.1,.06,.31,.11,.22,.25,.19,.25,.2,1.32,.47,.58,.03,.45-.06,.42-.32,.2-.23,.1-.42,.11-.32,.14-.23-.03-.15-.21-.11-.07-.18v-.13s-.13-.07-.14-.07-.18-.02-.18-.02l-.13,.26,.02,.25-.21,.18-.41,.2-1.05,.12-.43-.05-.11-.24,.03-.13Z"/><path class="cls-1" d="M201.36,293.06h.2v.07l-.12,.08-.13,.02-.07-.05-.17-.02-.02-.07,.04-.07s.04-.02,.05-.02,.11,.02,.11,.02l-.11-.08h-.08l-.02,.11-.06,.06-.15-.08-.1-.22,.12-.5-.03-.15,.1-.28-.07-.2,.17-.02,.13,.08,.11,.06,.1,.03,.07,.12v.08l.08,.04h.06l.08,.2-.03,.25-.05,.21,.02,.09v.07l-.11,.12-.11,.05Z"/><polygon class="cls-1" points="201.44 291.16 201.45 291.06 201.45 291.01 201.35 290.87 201.05 290.91 200.88 290.9 200.82 290.98 200.78 291.09 200.71 291.18 200.66 291.24 200.69 291.27 200.92 291.12 201.06 291.15 201.22 291.16 201.38 291.2 201.44 291.19 201.44 291.16"/><polygon class="cls-1" points="200.97 289.93 200.89 290.01 200.87 290.18 200.81 290.29 200.8 290.4 200.83 290.51 200.91 290.49 201.04 290.38 201.12 290.36 201.19 290.31 201.28 290.27 201.31 290.22 201.28 290.17 201.22 290.12 201.13 290.07 201.09 289.99 201.03 289.93 200.97 289.93"/><path class="cls-1" d="M201.2,289.56v.05l.07,.02h.06l.03,.05-.05,.05-.17,.02s0,.03,0,.04-.16,.1-.16,.1l-.09-.04-.04-.12-.04-.09v-.09l.02-.08,.05-.09,.07-.06,.07,.02,.06,.03-.03,.04-.02,.03,.05,.03h.09l.07-.03h.05l.03,.08-.11,.06Z"/><polygon class="cls-1" points="201.2 289.11 200.98 289.18 200.76 289.31 200.71 289.28 200.8 289.19 200.89 289.15 200.93 289.11 200.97 289.1 201.02 289.1 201.07 289.1 201.13 289.07 201.18 289.07 201.2 289.11"/><path class="cls-1" d="M201.02,288.98s-.06,.05-.06,.05l-.08,.05-.07,.04h-.09l-.06-.07,.06-.05,.13-.04h.17Z"/><polygon class="cls-1" points="200.57 287.6 200.57 287.78 200.64 287.92 200.69 288.06 200.72 288.5 200.72 288.65 200.76 288.73 200.8 288.81 200.84 288.83 200.94 288.79 201.1 288.75 201.16 288.74 201.18 288.58 201.21 288.47 201.14 288.24 201.06 287.82 200.91 287.71 200.76 287.63 200.73 287.58 200.65 287.58 200.57 287.6"/><path class="cls-1" d="M200.28,287.7s-.06,.06-.07,.06-.06,.01-.07,0-.24-.18-.24-.18l-.05-.12v-.28l.12-.12,.06-.02-.1-.27-.04-.15,.04-.06,.02-.04-.1-.14-.16-.08-.08,.04h-.09l-.11-.04-.29-.27h-.15l-.22-.35-.03-.24v-.12l.5-.02,.14-.11,.12,.03,.22,.13,.17,.11,.11,.2,.05,.1,.21,.29,.21,.22,.08,.07,.04,.17-.05,.09-.03,.17v.09l.08,.16-.07,.05-.1,.04-.12,.07-.08,.09-.05,.12,.03,.15,.06,.08,.03,.06Z"/><path class="cls-1" d="M199.24,284.47l-.17,.17-.07,.19-.16,.14-.11,.3-.08,.3,.05,.4v.2l-.17,.21,.03,.14,.28,.22,.08,.08s-.14,.06-.15,.06-.27-.1-.27-.1h-.18l-.19-.18-.44-1.13-.06-.66,.28-.62,.19-.23,.21-.23,.15-.08,.14,.03,.05,.05-.07,.18-.05,.11,.18,.16,.19,.13,.08,.11,.1,.04,.12-.04,.05,.04v.05Z"/></g><polygon class="cls-1" points="48.18 115.65 48.39 116.19 48.44 116.74 48.44 117.06 48.61 118.92 48.32 119.93 47.9 120.82 47.35 121.18 46.81 120.59 45.95 119.21 45.95 118.12 46.06 117.46 46.7 116.43 46.95 115.72 47.28 115.35 47.58 115.19 48.04 115.42 48.18 115.65"/><path class="cls-1" d="M236.14,85.03l-.45-.7-.83-.05h-.96s-.69-.24-.75-.25-.75,.18-.75,.18l-.28,.21-.31,.47,.16,.49,.76,.62,.75,.54,1.68-.25,.99-.09,.23-.42-.1-.48-.14-.25Z"/><g><polygon class="cls-1" points="3.33 1.49 3.27 2.08 2.09 1.78 1.07 1.38 .11 .79 0 .21 .36 0 1.01 .18 1.72 .38 2.09 .56 2.68 .86 3.08 1.04 3.33 1.49"/><path class="cls-1" d="M10.66,3.8l-1.1-.37-.31-.34,.38-.18,.48,.25,.49,.33s.26,.22,.29,.23,.25,.02,.25,.02l.36,.57,.73,1.22,.48,1.28,.17,.82,.23,.6,.08,.58,.09,.47s.21,.36,.23,.39,.34,.59,.34,.59l.16,.45-.31-.07-.57-.95-1.02-1.34-.86-.96-1.04-1.13-.82-.85-.14-.25,.08-.2,.32-.02,.12,.23,.23,.02,.08,.37,.19,.23,.32,.17,.19,.31,.46,.48,.45,.39,.27-.02,.1-.31-.15-.43-.33-.52-.48-.44v-.72l-.18-.47-.1-.34-.15-.08Z"/></g><g><polygon class="cls-1" points="685.47 689.23 685.31 689.67 685.16 690.13 685.16 690.56 685.16 690.83 685.37 691.02 685.5 691.09 685.65 691.21 685.65 691.46 685.57 691.6 685.45 691.67 685.39 691.7 685.28 691.54 685.25 691.52 685.16 691.49 684.95 691.26 684.93 691.18 684.98 691.09 685.03 690.99 685.07 690.94 685.07 690.87 685 690.78 684.93 690.71 684.85 690.5 684.78 690.33 684.75 690.24 684.73 689.96 684.77 689.71 684.81 689.6 684.86 689.52 684.98 689.38 685.08 689.31 685.19 689.26 685.29 689.2 685.35 689.18 685.42 689.18 685.46 689.2 685.47 689.23"/><polygon class="cls-1" points="686.37 686.51 686.27 686.59 686.18 686.69 686.14 686.68 686.07 686.55 686.07 686.43 685.96 686.3 685.9 686.22 685.89 686.14 685.93 686.06 685.99 686 686.06 685.99 686.1 685.98 686.13 686.04 686.19 686.11 686.23 686.19 686.24 686.25 686.26 686.33 686.26 686.38 686.32 686.44 686.37 686.51"/><polygon class="cls-1" points="686.91 685.88 686.91 686.08 686.81 686.11 686.7 686.19 686.61 686.25 686.59 686.29 686.55 686.28 686.52 686.22 686.52 686.16 686.46 686.09 686.42 686.03 686.41 685.85 686.41 685.75 686.45 685.65 686.5 685.59 686.57 685.54 686.6 685.5 686.64 685.51 686.69 685.55 686.75 685.58 686.79 685.66 686.84 685.75 686.88 685.82 686.91 685.88"/><polygon class="cls-1" points="687.1 685.75 687.05 685.75 687.04 685.8 687.01 685.85 687.01 685.93 687.05 685.95 687.09 685.96 687.13 685.91 687.14 685.87 687.13 685.82 687.11 685.77 687.1 685.75"/><polygon class="cls-1" points="687.92 685.42 687.92 685.49 687.86 685.5 687.78 685.53 687.72 685.54 687.67 685.59 687.65 685.61 687.6 685.61 687.58 685.57 687.55 685.52 687.54 685.37 687.55 685.17 687.57 685.13 687.61 685.12 687.66 685.13 687.68 685.15 687.71 685.17 687.74 685.21 687.76 685.26 687.78 685.31 687.79 685.35 687.85 685.39 687.9 685.42 687.92 685.42"/><polygon class="cls-1" points="687.79 685.3 687.85 685.28 687.9 685.24 687.93 685.19 687.92 685.1 687.86 685.04 687.81 685.05 687.79 685.07 687.79 685.1 687.78 685.11 687.76 685.09 687.74 685.08 687.72 685.09 687.71 685.11 687.71 685.14 687.72 685.15 687.73 685.17 687.75 685.18 687.77 685.18 687.78 685.21 687.78 685.24 687.77 685.24 687.76 685.26 687.77 685.28 687.78 685.3 687.79 685.3"/><polygon class="cls-1" points="688.33 685.37 688.32 685.43 688.31 685.49 688.31 685.51 688.24 685.51 688.21 685.48 688.19 685.44 688.18 685.31 688.2 685.24 688.22 685.21 688.26 685.21 688.29 685.21 688.31 685.24 688.32 685.28 688.33 685.33 688.33 685.37"/><path class="cls-1" d="M688.55,685.5h-.09l-.07-.14-.04-.16,.06-.11,.11-.09h.69l.21,.04,.26,.04,.32,.09,.32,.11,.23,.12,.34,.22,.24,.28,.25,.33,.07,.18,.07,.34,.05,.33,.04,.26v.95l-.03,.07,.02,.13,.14,.66,.25,.62,.2,.27,.2,.24,.19,.34-.02,.13-.1,.08-.05-.05v-.13l-.3-.43-.1-.05-.09-.13v-.05l-.12-.19v-.09l-.13-.12v-.08l-.05-.04v-.09l-.05-.02-.1-.02-.03-.07v-.09l.04-.04v-.03l-.07-.04-.05-.08v-.79l.03-.04-.02-.11,.02-.08,.02-.03v-.21l-.04-.04v-.06l.03-.03,.02-.04,.02-.42-.03-.09s0-.14,0-.15,0-.11,0-.11v-.1l-.11-.18v-.17l-.14-.16-.17-.13-.02-.12-.12-.12-.02,.07-.03-.11-.52-.19h-.23l-.1,.07-.09,.02-.16-.1-.07-.2-.11-.07h-.38l-.28,.07-.21,.06-.05,.07h-.02Z"/><polygon class="cls-1" points="694.03 691.85 693.99 691.92 693.93 691.91 693.89 691.85 693.88 691.78 693.92 691.75 693.96 691.76 693.99 691.77 694.01 691.81 694.03 691.84 694.03 691.85"/><polygon class="cls-1" points="694.36 692.24 694.28 692.22 694.23 692.24 694.2 692.27 694.23 692.31 694.25 692.34 694.3 692.35 694.34 692.35 694.35 692.32 694.36 692.3 694.37 692.27 694.36 692.24"/><path class="cls-1" d="M694.94,692.53h-.13l-.1,.07-.05,.07-.09,.02-.02,.07,.05,.06s.22,.03,.23,.03,.15,.04,.15,.04l.09,.12,.13,.07,.05,.08,.15,.19,.13,.11,.05,.11,.43,.45,.2,.42,.14,.14v.14l.12,.23,.1,.21,.03,.15,.09,.2,.05,.22,.02,.09,.08,.1,.23,.44,.04,.05,.04,.15,.11,.25v.08l.07,.1,.03,.12,.04,.24,.03,.22,.02,.39v.74l-.03,.22-.03,.37-.05,.35-.06,.21-.02,.15-.05,.2-.06,.16-.05,.05-.06,.1-.02,.19-.06,.15-.02,.09-.07,.13,.04,.12-.06,.13-.17,.22-.41,.24-.29,.14-.23,.09,.03,.07,.09,.05,.27,.05,.05-.06v-.07l-.03-.1h.03l.03,.08,.04,.08,.08,.06,.11,.03,.09,.04,.12,.05,.12,.02,.08-.11,.12-.37,.16-.58,.22-.77,.04-.15,.1-.15,.09-.58,.12-.66v-.9l-.04-.34-.1-.56-.26-.8-.33-.8-.29-.66-.22-.49-.35-.47-.4-.58-.43-.4-.18-.18-.15-.17Z"/><polygon class="cls-1" points="695.45 702.89 695.33 702.89 695.3 702.91 695.32 702.95 695.36 702.99 695.41 703.02 695.45 703 695.45 702.95 695.45 702.89"/><path class="cls-1" d="M695.49,702.49s-.16,.27-.16,.27l-.14,.11-.08,.03-.15-.04-.42-.18-.13-.28-.02-.06,.03-.09,.3-.02h.23l.12,.03,.23-.1,.1-.05,.06,.03,.02,.11v.1l.03,.1v.02Z"/><path class="cls-1" d="M694.26,702.49s-.02,.05-.02,.05h-.06l-.09-.03v-.05l.06-.05,.04,.02,.03,.04,.05,.02Z"/><polygon class="cls-1" points="694.11 701.45 694.03 701.39 693.93 701.34 693.89 701.39 693.9 701.44 693.95 701.48 694.01 701.51 694.08 701.5 694.11 701.47 694.11 701.45"/><polygon class="cls-1" points="693.14 700.84 693.07 700.87 693.06 700.95 692.99 701.06 692.87 701.2 692.84 701.27 692.84 701.34 692.91 701.35 692.96 701.31 693 701.26 693.05 701.17 693.14 701.13 693.25 701.05 693.27 701.02 693.21 700.95 693.14 700.88 693.14 700.84"/><polygon class="cls-1" points="692.91 700.66 692.85 700.69 692.74 700.67 692.73 700.55 692.76 700.51 692.82 700.52 692.9 700.59 692.93 700.63 692.91 700.66"/><path class="cls-1" d="M692.35,700.41s-.14,.08-.14,.08l-.12,.05-.12,.12-.07,.1-.02,.06-.11,.03-.09-.04-.14-.1-.03-.15,.04-.06,.06-.02h.14l.09-.09,.09-.05h.1l.13,.02,.12,.02,.08,.02Z"/></g></g></g></svg>