<?xml version="1.0" encoding="UTF-8"?><svg id="Ebene_2" xmlns="http://www.w3.org/2000/svg" viewBox="0 0 2047.72 950.5"><defs><style>.cls-1{fill:#4c5156;}</style></defs><g id="Ebene_2-2"><polygon class="cls-1" points="2035.08 950.5 2031.58 943.67 2027.17 943 2024.67 945.83 2026.58 948.58 2028.92 950.5 2035.08 950.5"/><polygon class="cls-1" points="2021.17 933.5 2017.25 940.58 2009.33 938.83 2002.33 930.75 2003.25 925.25 2017.17 925.25 2015.17 929.08 2016.25 931 2018.33 932.92 2021.17 933.5"/><path class="cls-1" d="M2022.61,873.61c-.11-.33-.5-3.39-.17-3.5s2.28-3.33,2.28-3.33l-4.56,.61s-3.17,3.39-3.17,3.72,1.44,2.17,1.44,2.17l4.56,.33h-.39Z"/><path class="cls-1" d="M2045.28,860.67c.06-.22,.11-4,.39-4.11s2.06-1.06,2.06-1.06c0,0-.72-.72-1-.72s-2.89,1.11-2.89,1.11l-1.78,1.11s-.11,1.44,0,1.67,1.11,1.28,1.44,1.44,1.78,.56,1.78,.56Z"/><path class="cls-1" d="M1994.28,910.06l-3.44-4.67,6.5-17.5,14.42-23.56-4.08-25s-10.67-15.33-10.67-16.33-6.17-4-6.17-4l-1.83-3.67-5-13-16-3.33-3.33,6-16-1.33-5.33-7.67v-8l-7.67-2.67-12.67-17-7.33,2-16.67-6.33h-13.67l-8.33-3.67,10.67-10.33-17.67-5.33-7.67-15.33-19,13-32,9.67-15-2,17-18.33,29.33-24s-14-9.33-15.33-9.67-14.67,5-14.67,5c0,0-5-6.33-5.67-7.67s-12-27.33-12-27.33l-22.67,4.67-4.67-24.67-23-3.33-17.67,13-9,6-13-14.67s-13.67-1-14.67-.67-10,2.33-10,2.33l-22.33-19.67h-38.33l-26.33,2-10.33-18.67-8-2-10.33-13.33-20.33-10-12.33-12.33-19-1.33-4,8.67-16-23-5.33,3,4.33,12.33-11,2.33s-32-17.67-31.67-17.67,0-16.67,0-16.67l-41.66-18.33-27.33,7.67-39.67-1.67-33.67,4.33-45.33,14-28.33,11-17,16-47.67,2.33-31.67-7-24.67,12.67-27.33,30.67-19.33,19.67,4.67,19.67s11.67,28.67,13,29,38,15.33,38,15.33l32.67,4,12.33,14.36-9.67,6.97,5,7.33,6.33,5.67,6.67,5.33,11.67,4,.33,15.67,12.33-1.67,4.33-10.67-5.67-9.67,12.33-4,9.33,12.33,8,11.67,5.67,23,10.33,17,18,17.67,14.67,11.33,13.33,11.67s20.33,2.33,21.67,2.33,7-5.33,9.67-4.67,22-4,22-4l11.67-11.33,24-3.33,6.33-7.67,7,6.33h12.33l7,.67,.33-2.33,5.67,8.33,1.67,7.67s5.67,8,6.67,8.33-10.33-5.67-10.33-5.67c0,0-5-4.67-6-6s-5.67-4.67-5.67-4.67c0,0-4.33,.33-1.33,2.33s7.33,10.33,7.33,10.33l6,9.33s7.67,2,8.67,2.33,10.67,1,14.67,1.33,8.33,1,12.33,1.33,18,.33,18,.33c0,0,9.67-1,11.67-1s17.33,12.33,17.67,13.67,3.67,9,3.67,9c0,0,2.67,6.67,4.67,7.33s5.67,3.33,5.67,3.33l-5.33,8c-.67,1-2,5-.67,6s10.33,4,10.33,4c0,0,12.33,.33,17,.67s6.67,0,15.33,.33,11,.33,13.67,0,12.33-3,13.67-3.33,6.67-6.33,8.33-7.33,5.33-3,8.33-3.67,8.67-1.67,9.67-2,23.67-1.67,23.67-1.67l24.67,10,25,5s17.67-3,19.67-3,25.67-2,25.67-2l18.67-8,4.33,11,35.33,2.33,43.33,1.33,21.67-1.67,19.33-5.67,30,2.67s21.33-.33,22.33-.33,28,7.67,28,7.67l13-1,20.67,2,16.28,3.39Z"/><polygon class="cls-1" points="1023.67 615.42 1020.25 606.58 1012.75 596.75 992.5 603.42 994.33 606.83 1001.25 619.25 1015.08 626.58 1023.67 619.75 1023.67 615.42"/><path class="cls-1" d="M954,565.67c-.67-.33-8,0-8,0l-2.17,3s-.5,5.33-.67,6,1.5,3.17,2.33,3.33,7,.67,7,.67c0,0,6-2.67,6-3.17s-4.5-9.83-4.5-9.83Z"/><path class="cls-1" d="M860.67,506.22s.22-23.11,0-24.67-12.67-20.22-12.67-20.22l8.67-24,28.22-22.89-8-26.44,29.33-33.78,11.56-16-32.89-68.89-28.44-56.89,6.67-4-24-21.33-16.89-36.44s-37.78-51.56-39.11-52-56.89-69.78-56.89-69.78L684.89,0h-36l-8,9.33-32.44-2.22-39.11,5.78-12.44,25.33h-65.33l-17.33-9.33-17.33,10.67-28,10.67-39.56-1.78-40.89,16-34.67,17.78-39.11-6.67-30.22,18.22,2.22,10.67-12,8-24-14.22-20.89,3.56-16-.89-7.56,8.44-49.78-1.78-29.33-21.78-13.33-5.78-7.56-11.56-12,11.56-16.89-4-12.44,3.56L0,107.56l13.78,20,3.56,16,22.67,21.33,32.44,24.89,22.22,7.56,15.11,20.44,33.33,37.33,16.44,13.78,11.11-6.67,5.78,10.22,8,16,13.78,13.33,14.22,17.78s11.56,15.11,12.89,15.56,13.33,13.33,13.33,13.33l8.89,13.78,30.67,25.33,28.44,19.56-5.78,28.44,7.11,16,13.78,5.33,6.67,29.33,27.11,8.89,13.33,17.33,.89,14.22s7.11,8.89,10.22,9.33,24.89,1.78,29.33,1.78,16-1.78,17.33-2.22,28.89-5.33,32.22-5.33,23.33-13.33,23.33-13.33c0,0,13.78,6.22,16.44,7.56s4.89,2.67,8,2.67,16.44-2.67,16.44-2.67l20-6.67s16.44-4,19.11-4,20.44-4.89,21.78-4,19.11,3.11,19.11,3.11l25.78-11.56,21.78-4.44,11.11,8.89,16.44-1.78,14.22-2.22s3.11-14.67,4.44-16,8.89-6.22,8.89-6.22l25.33-3.11,20,1.78,13.78,31.11,8.44,16.89s13.78,9.33,20.44,9.78,15.11,0,19.56,1.78,19.11,4,22.67,4,18.67-8.44,18.67-8.44l7.56-20-1.56-7.11Z"/></g></svg>