<?xml version="1.0" encoding="UTF-8"?><svg id="Ebene_2" xmlns="http://www.w3.org/2000/svg" viewBox="0 0 512.08 624.5"><defs><style>.cls-1{fill:#4c5156;}</style></defs><g id="Ebene_1-2"><path class="cls-1" d="M387.67,502.92l25.17-25.33s5.67-8.92,5.92-8.92,18.67-15.42,18.67-15.42l20.92-24.67,3.5-9.67,18.75-23.75,13.42-19.67,8.58-13.75,.75-7.83,7-12.33,1.75-8.5s-2.83-11.33-2.92-11.58-16.58-23.42-16.58-23.42l-10.75-24.33-4.83-4.08-4.83-11.67-2.42-8.67-3.92-3.92-1.67-6.67-8.92-13.75-.75-4.08,1.5-2.17-4.25-5.83-.25-10.08s1.75-1.92,1.83-3.25,2.33-7.42,2.33-7.42c0,0,1.75-11.17,1.75-11.5s-3-11-3-11l-2.92-3.83-.42-5.33-7.92-10.92-1.92-9.5s-4.17-5.42-4.25-6-2.17-9.42-2.17-9.42l-.5-6.75-4.92-13-1.58-9.08,2.58-4.5-.5-19.67-1.67-5.67-1.25-9.25-7.17-15.25-8.17-10.67-9.58-6.33-14.75-5.92-10.5-3.58h-18.08l-7.25-4.17-7.58-1.08-16.17-4.83-10.33-1.92-9.83-1.58-10.67-1.42-14.33,2.58-11.33,4.75-5.5,1.67-2.92,2.75-3.42-1.33-4.83,.92-5.08,.5-7.33,2.58-5.75,.83-6.25,1.25-3.92,1.5-3.83,1.08-5.58,.08-3.83-.67-2.67,2.33-4.67,2.17-11.33,8.5-18.42,15.83s-13.92,14.25-14.17,14.42-5.83,8.25-5.83,8.25l-.75,2.25-3.25,1.75-6.83,13.08-3.5,9.33v3.25l-2.42,1v4l-6.25,8.5-1.17,4.08-2.83,3.25-1.42-.33-.5,3.25-20.25,19.33-10.08,10.75-15.42,17.17-1.17,7-2.83,7.75-.67,10.25,2,7.33,3.08,11.75,3.92,16.5,5.08,16.92,4.08,16.75-.17,21-4,11-3.67,11.33-2.42,.25-7.08,10.08-1.75,4.33-7.67,.58-4.08,6.92h-5.75l-3.92,3.33-17.75,11.83-6.58,5.67-5.08,1.25-9.58,7.08-8.33,5-5.42,7.17-1.5,5.25,1.58,7.33,7.83,8.67,10.92,14.92,13.17,12.92,16,12,16.83,13.08,16.42,15.25,13.83,12.25,10.33,19,2.33,9.17,1.25,15.5-2.42,10.83,1.33,2.33-.25,3.92-4.92,3-1.58,4.67-4.92,1.25-16.92,14.58-1.5,3.33,1,3.25,11.75,5.67,10.42,2.08s12.58-2.5,12.83-2.5,11.5,.25,11.5,.25l13.75,2.83,15.83,7.67,19.58,18,15.42,15.75,8.5,6.58,6.5,3.92,11.33-1.75,22.5-11.75,27.67-9,19.92-4,22.17-.17,11.25-12.42,5.83-14.08,7.58-14.75,17-24,16.42-12.58,19.58-17.08Z"/></g></svg>