<?xml version="1.0" encoding="UTF-8"?><svg id="Ebene_2" xmlns="http://www.w3.org/2000/svg" viewBox="0 0 1952.17 1345.23"><defs><style>.cls-1{fill:#4c5156;}</style></defs><g id="Ebene_2-2"><g><path class="cls-1" d="M1952.17,1217.39l-26.5-36.33-20.67-14.83-22.17,9.83-36,30.83-13,10.83-16.67,24.33,2.33,5.83,12-1.17,9.83,5.5,16.67,18.67,10.67,8.67,13.5,12.17,2.5,7.5,16.17,15.67,8.5,11.33-.67,11.17,3.33,7.83h2c.5-.17,13.33-14.67,13.33-14.67l6.5-19.33-6.33-39.5,13.17-38.67,11.5-15.67Zm-29.83,36c0,.5-.5,19.17-.5,19.17l2.67,21.5,3.83,11.33v14.83l-7.67,8.5-9.67-4.67-7.17-14.33-10.33-14.17-17.67-20-22-20.67-5.17-11-18.5-7.17,14.17-17.17,24-22.5,22.33-16.33,17.67-8,16.5,13.83,17.67,28.17v3.67l-6.17,3.83s-14,30.67-14,31.17Z"/><path class="cls-1" d="M1083.56,956.73l-15.11-43.78s1.78-41.78,1.78-42.67,8.22-24.22,8.22-24.22l.22-6.67-10.22,2-42.44,12.67-40.44-2-29.12,6.89v33.33l1.33,28.22s-10.89,25.33-10.67,26.22c.22,.89,0,13.56,0,13.56l16.89,17.11,27.56,30.67,8.44,4,5.33,2.67,7.33,5.11,49.56,12.67,21.78-2.67,7.56-10.44,3.56-6.22-1.11-3.11s6.89-9.11,7.11-9.78c.22-.67-17.56-43.56-17.56-43.56Zm6.22,52l-11.33,12-22,5.78-39.78-11.11-23.33-14.22-26-28.67-12.89-20.67,11.11-34-3.56-49.56,4.22-8.22h70.44l33.78-9.78-6.44,17.33-.67,36,5.33,26.44,12.67,33.78,12.22,36.22-3.78,8.67Z"/><path class="cls-1" d="M79.83,36.23s-15.83-9-16.5-9.5c-.67-.5-21.33-19.83-21.5-20.33-.17-.5-3.5-6.33-3.5-6.33C38.33,.06,24.33,.23,23.83,.06c-.5-.17-14.33,.07-14.33,.07L0,1.39v7.17l3.17,7.83-1.5,6.5,8.17,15.33-.33,16.5,2.5,16.33,4,5.17,5.5,4.17,27-12.5s24.67-4.83,25.17-4.83,7-.83,7-1.33-3.5-17.5-3.5-17.5l2.67-8Zm-20.83,22.5l-24.83,5.5-4.83,5.5-6.5,4.83-3.67-5.67,2-8-4.67-8.5-5.33-27.17-2.5-5.5V5.39h11l1.83,3,3.5,3,3.5-3,8.5-2.33,6.33,8.5,11,12.83,10.67,12.58,2,13.08-8,5.67Z"/></g></g></svg>